<mxfile host="app.diagrams.net" modified="2023-12-20T18:02:30.479Z" agent="Mozilla/5.0 (Windows NT 10.0; Win64; x64) AppleWebKit/537.36 (KHTML, like Gecko) Chrome/120.0.0.0 Safari/537.36" etag="gr-OVbLx_592az7Hfqqz" version="22.1.11" type="google">
  <diagram name="第 1 页" id="TeiJwMbkjVWHc5MxbR4b">
    <mxGraphModel grid="1" page="1" gridSize="10" guides="1" tooltips="1" connect="1" arrows="1" fold="1" pageScale="1" pageWidth="827" pageHeight="1169" math="0" shadow="0">
      <root>
        <mxCell id="0" />
        <mxCell id="1" parent="0" />
        <mxCell id="rFBtfZBmvq5GdR2NCA0t-1" value="商家" style="shape=umlActor;verticalLabelPosition=bottom;verticalAlign=top;html=1;outlineConnect=0;" vertex="1" parent="1">
          <mxGeometry x="20" y="160" width="30" height="60" as="geometry" />
        </mxCell>
        <mxCell id="rFBtfZBmvq5GdR2NCA0t-2" value="訂單管理" style="rounded=1;whiteSpace=wrap;html=1;" vertex="1" parent="1">
          <mxGeometry x="150" y="230" width="140" height="30" as="geometry" />
        </mxCell>
        <mxCell id="rFBtfZBmvq5GdR2NCA0t-3" value="系統首頁" style="rounded=1;whiteSpace=wrap;html=1;" vertex="1" parent="1">
          <mxGeometry x="150" y="80" width="140" height="30" as="geometry" />
        </mxCell>
        <mxCell id="rFBtfZBmvq5GdR2NCA0t-4" value="個人中心" style="rounded=1;whiteSpace=wrap;html=1;" vertex="1" parent="1">
          <mxGeometry x="150" y="130" width="140" height="30" as="geometry" />
        </mxCell>
        <mxCell id="rFBtfZBmvq5GdR2NCA0t-5" value="美食信息管理" style="rounded=1;whiteSpace=wrap;html=1;" vertex="1" parent="1">
          <mxGeometry x="150" y="185" width="140" height="30" as="geometry" />
        </mxCell>
        <mxCell id="rFBtfZBmvq5GdR2NCA0t-8" value="" style="endArrow=none;html=1;rounded=0;entryX=0;entryY=0.5;entryDx=0;entryDy=0;" edge="1" parent="1" source="rFBtfZBmvq5GdR2NCA0t-1" target="rFBtfZBmvq5GdR2NCA0t-3">
          <mxGeometry width="50" height="50" relative="1" as="geometry">
            <mxPoint x="160" y="230" as="sourcePoint" />
            <mxPoint x="210" y="180" as="targetPoint" />
          </mxGeometry>
        </mxCell>
        <mxCell id="rFBtfZBmvq5GdR2NCA0t-9" value="" style="endArrow=none;html=1;rounded=0;entryX=0;entryY=0.5;entryDx=0;entryDy=0;exitX=1;exitY=0.3333333333333333;exitDx=0;exitDy=0;exitPerimeter=0;" edge="1" parent="1" source="rFBtfZBmvq5GdR2NCA0t-1" target="rFBtfZBmvq5GdR2NCA0t-4">
          <mxGeometry width="50" height="50" relative="1" as="geometry">
            <mxPoint x="70" y="169" as="sourcePoint" />
            <mxPoint x="160" y="105" as="targetPoint" />
          </mxGeometry>
        </mxCell>
        <mxCell id="rFBtfZBmvq5GdR2NCA0t-10" value="" style="endArrow=none;html=1;rounded=0;entryX=0;entryY=0.5;entryDx=0;entryDy=0;exitX=1;exitY=0.3333333333333333;exitDx=0;exitDy=0;exitPerimeter=0;" edge="1" parent="1" source="rFBtfZBmvq5GdR2NCA0t-1" target="rFBtfZBmvq5GdR2NCA0t-5">
          <mxGeometry width="50" height="50" relative="1" as="geometry">
            <mxPoint x="70" y="170" as="sourcePoint" />
            <mxPoint x="160" y="155" as="targetPoint" />
          </mxGeometry>
        </mxCell>
        <mxCell id="rFBtfZBmvq5GdR2NCA0t-11" value="" style="endArrow=none;html=1;rounded=0;entryX=0;entryY=0.5;entryDx=0;entryDy=0;exitX=1;exitY=0.3333333333333333;exitDx=0;exitDy=0;exitPerimeter=0;" edge="1" parent="1" source="rFBtfZBmvq5GdR2NCA0t-1" target="rFBtfZBmvq5GdR2NCA0t-2">
          <mxGeometry width="50" height="50" relative="1" as="geometry">
            <mxPoint x="70" y="170" as="sourcePoint" />
            <mxPoint x="160" y="210" as="targetPoint" />
          </mxGeometry>
        </mxCell>
      </root>
    </mxGraphModel>
  </diagram>
</mxfile>
